<?xml version="1.0" encoding="UTF-8"?>
<svg width="75px" height="76px" viewBox="0 0 75 76" version="1.1" xmlns="http://www.w3.org/2000/svg" xmlns:xlink="http://www.w3.org/1999/xlink">
    <title>Logo/Interface/bitpay-mark-round (250x250)</title>
    <defs>
        <linearGradient x1="50%" y1="0%" x2="50%" y2="100%" id="linearGradient-1">
            <stop stop-color="#091C57" offset="0%"></stop>
            <stop stop-color="#142F94" offset="100%"></stop>
        </linearGradient>
        <ellipse id="path-2" cx="37.5" cy="37.4958407" rx="37.5" ry="37.4958407"></ellipse>
    </defs>
    <g id="Page-1" stroke="none" stroke-width="1" fill="none" fill-rule="evenodd">
        <g id="PayID---Profile" transform="translate(-156.000000, -321.000000)">
            <g id="Group-3" transform="translate(47.000000, 209.000000)">
                <g id="Group" transform="translate(109.000000, 112.000000)">
                    <g id="BitPay-Logo" transform="translate(0.000000, 0.125000)">
                        <g id="Icon" transform="translate(0.000000, 0.038315)">
                            <mask id="mask-3" fill="white">
                                <use xlink:href="#path-2"></use>
                            </mask>
                            <use id="Oval-4" fill="url(#linearGradient-1)" xlink:href="#path-2"></use>
                            <path d="M34.8084426,52.3928323 C36.1221797,52.3928323 37.3407184,52.1100086 38.4655234,51.403023 C39.5917929,50.7902629 40.6228641,49.941939 41.4664679,48.8579042 C42.3100716,47.8209822 42.9676724,46.5956092 43.4363412,45.2760106 C43.9050099,43.9091522 44.1393443,42.5422937 44.1393443,41.0813569 C44.1393443,39.2903365 43.858143,37.923478 43.2488737,36.886556 C42.6381397,35.8496339 41.419601,35.4256192 39.8261273,35.4256192 C39.3105917,35.4256192 38.7935915,35.4725847 37.9499877,35.6611829 C37.106384,35.8496339 36.4033809,36.2739431 35.7003778,36.8394432 L32.0901639,52.2042341 C33.2149689,52.3928323 34.3866407,52.3928323 34.8084426,52.3928323 Z M42.0915065,28.5417425 C43.8819145,28.5417425 45.4354649,28.8702406 46.7551,29.5270901 C48.073264,30.1371788 49.1089643,30.9818044 50.0034327,32.1080206 C50.852295,33.187476 51.4642997,34.4544143 51.8879953,35.9089819 C52.3116909,37.3638428 52.5,38.9123718 52.5,40.6016228 C52.5,43.1825532 52.0292271,45.5758543 51.0406042,47.8751941 C50.05051,50.1276265 48.7794233,52.1922829 47.1317183,53.8347732 C45.4825422,55.5240242 43.5523735,56.8849238 41.2911926,57.823364 C39.0314829,58.8088581 36.6290702,59.2780782 34.0383484,59.2780782 C33.7088074,59.2780782 33.0968027,59.2780782 32.2494115,59.2311709 C31.4005492,59.2311709 30.4119262,59.1373562 29.376226,58.9966341 C28.2934484,58.8088581 27.1150451,58.6212287 25.938113,58.339638 C24.7141036,58.0580473 23.5827776,57.6357346 22.5,57.1196071 L32.2023342,16.6225843 L40.8674971,15.2616848 L37.4293841,29.6209048 C38.1826206,29.2925533 38.8902511,29.0109626 39.6434876,28.870094 C40.4438015,28.6355572 41.2441153,28.5417425 42.0915065,28.5417425 L42.0915065,28.5417425 Z" id="Fill-91" fill="#FFFFFE" mask="url(#mask-3)"></path>
                        </g>
                    </g>
                </g>
            </g>
        </g>
    </g>
</svg>