<?xml version="1.0" encoding="UTF-8"?>
<svg width="42px" height="42px" viewBox="0 0 42 42" version="1.1" xmlns="http://www.w3.org/2000/svg" xmlns:xlink="http://www.w3.org/1999/xlink">
    <title>icon</title>
    <defs>
        <linearGradient x1="104.518989%" y1="19.3262989%" x2="27.4459746%" y2="51.401096%" id="linearGradient-1">
            <stop stop-color="#C906F9" offset="0%"></stop>
            <stop stop-color="#A803FC" offset="44.8312%"></stop>
            <stop stop-color="#8700FF" offset="86.2484%"></stop>
        </linearGradient>
        <linearGradient x1="37.3624819%" y1="18.6714892%" x2="25.9404327%" y2="89.0066375%" id="linearGradient-2">
            <stop stop-color="#0044FF" offset="0%"></stop>
            <stop stop-color="#0087FF" offset="48.9583%"></stop>
            <stop stop-color="#00CAFF" offset="100%"></stop>
        </linearGradient>
        <linearGradient x1="-0.174234374%" y1="69.6374277%" x2="38.0914955%" y2="76.7486229%" id="linearGradient-3">
            <stop stop-color="#B0FF33" offset="0%"></stop>
            <stop stop-color="#55DF20" offset="49.4792%"></stop>
            <stop stop-color="#0AC222" offset="100%"></stop>
        </linearGradient>
        <linearGradient x1="31.3679783%" y1="99.4245266%" x2="71.2200903%" y2="83.9672707%" id="linearGradient-4">
            <stop stop-color="#FF8100" offset="0%"></stop>
            <stop stop-color="#FF8100" offset="0.01%"></stop>
            <stop stop-color="#FF5D00" offset="50%"></stop>
            <stop stop-color="#FF3600" offset="100%"></stop>
        </linearGradient>
    </defs>
    <g id="Page-1" stroke="none" stroke-width="1" fill="none" fill-rule="evenodd">
        <g id="icon" fill-rule="nonzero">
            <path d="M22.2181,33.0207 C25.0237,32.6479 27.6221,31.3415 29.5948,29.312 L41.08,17.5401 C40.3489,17.4202 39.6087,17.3648 38.8679,17.3743 C36.85,17.3865 34.865,17.8855 33.0812,18.8289 C31.9564,19.4297 30.9312,20.2007 30.0419,21.1146 L25.8058,25.4546 C25.7808,25.4822 25.7532,25.5099 25.7256,25.5388 C24.3942,26.904 22.5781,27.6892 20.6714,27.7239 C18.7648,27.7586 16.9213,27.0401 15.5411,25.7242 L19.9652,30.0405 C20.8627,30.9141 21.6224,31.919 22.2181,33.0207 Z" id="Path" fill="url(#linearGradient-1)"></path>
            <path d="M11.7676,29.591 L23.5409,41.0762 C23.9899,38.3169 23.5253,35.4865 22.2178,33.0156 C21.6223,31.9149 20.8631,30.911 19.9663,30.0381 L15.5421,25.7218 C14.8478,25.061 14.2915,24.2689 13.9056,23.3915 C13.5197,22.5141 13.3118,21.5689 13.2939,20.6105 C13.2761,19.6521 13.4486,18.6998 13.8016,17.8086 C14.1545,16.9174 14.6809,16.1052 15.3501,15.4189 L11.0364,19.8418 C10.1474,20.7557 9.12211,21.5263 7.99711,22.1262 C8.36718,24.9713 9.69737,27.6047 11.7676,29.591 Z" id="Path" fill="url(#linearGradient-2)"></path>
            <path d="M-9.91821e-05,23.4228 C0.730669,23.5415 1.47037,23.5965 2.21067,23.5872 C4.22853,23.574 6.21349,23.0746 7.99732,22.1313 C9.12232,21.5314 10.1476,20.7608 11.0366,19.8469 L15.3543,15.4214 C16.0182,14.7396 16.81,14.1953 17.6844,13.8197 C18.5587,13.444 19.4986,13.2444 20.4502,13.2322 C21.4017,13.22 22.3464,13.3954 23.2302,13.7485 C24.1139,14.1016 24.9194,14.6254 25.6006,15.2899 L21.2356,11.0314 C20.3046,10.1265 19.5221,9.08035 18.917,7.93164 C16.0922,8.2957 13.474,9.60573 11.489,11.6483 L-9.91821e-05,23.4228 Z" id="Path" fill="url(#linearGradient-3)"></path>
            <path d="M25.8071,25.4573 L30.0432,21.1173 C30.9325,20.2034 31.9577,19.4324 33.0825,18.8316 C32.7206,16.0442 31.4363,13.4581 29.4343,11.4852 L17.6598,0 C17.5403,0.730684 17.4853,1.47045 17.4954,2.21077 C17.508,4.20485 17.9954,6.16726 18.917,7.93561 C19.5222,9.08431 20.3047,10.1304 21.2357,11.0354 L25.6006,15.2939 C26.9621,16.6218 27.7469,18.4318 27.7855,20.3333 C27.8241,22.2348 27.1135,24.0752 25.8071,25.4573 Z" id="Path" fill="url(#linearGradient-4)"></path>
        </g>
    </g>
</svg>