<?xml version="1.0" encoding="UTF-8"?>
<svg width="19px" height="19px" viewBox="0 0 19 19" version="1.1" xmlns="http://www.w3.org/2000/svg" xmlns:xlink="http://www.w3.org/1999/xlink">
    <title>Icon (Left)</title>
    <g id="Page-1" stroke="none" stroke-width="1" fill="none" fill-rule="evenodd">
        <g id="PayID---Profile" transform="translate(-56.000000, -680.000000)" fill="#9BA3AE" fill-rule="nonzero">
            <g id="Component/Global/List/Item-(Icon)" transform="translate(55.000000, 678.952381)">
                <g id="Component/Global/List/Item" transform="translate(0.213333, 0.428571)">
                    <g id="Icon-(Left)" transform="translate(0.000000, -0.047619)">
                        <path d="M13.0092593,5 C13.1882404,5 13.3333333,5.13494963 13.3333333,5.30141844 L13.3333333,5.30141844 L13.3333333,8.31560284 C13.3333333,8.48207164 13.1882404,8.61702128 13.0092593,8.61702128 L13.0092593,8.61702128 L10.7407407,8.61702128 L10.7407407,18.8652482 C10.7407407,19.031717 10.5956478,19.1666667 10.4166667,19.1666667 C10.2376855,19.1666667 10.0925926,19.031717 10.0925926,18.8652482 L10.0925926,18.8652482 L10.0925926,8.61702128 L7.82407407,8.61702128 C7.64509291,8.61702128 7.5,8.48207164 7.5,8.31560284 L7.5,8.31560284 L7.5,5.30141844 C7.5,5.13494963 7.64509291,5 7.82407407,5 L7.82407407,5 Z M7.17592593,11.6666667 C7.35490709,11.6666667 7.5,11.8009812 7.5,11.9666667 L7.5,11.9666667 L7.5,14.9666667 C7.5,15.1323521 7.35490709,15.2666667 7.17592593,15.2666667 L7.17592593,15.2666667 L4.90740741,15.2666667 L4.90740741,18.8666667 C4.90740741,19.0323521 4.7623145,19.1666667 4.58333333,19.1666667 C4.40435216,19.1666667 4.25925926,19.0323521 4.25925926,18.8666667 L4.25925926,18.8666667 L4.25925926,15.2666667 L1.99074074,15.2666667 C1.81175957,15.2666667 1.66666667,15.1323521 1.66666667,14.9666667 L1.66666667,14.9666667 L1.66666667,11.9666667 C1.66666667,11.8009812 1.81175957,11.6666667 1.99074074,11.6666667 L1.99074074,11.6666667 Z M18.8425926,11.6666667 C19.0215738,11.6666667 19.1666667,11.8009812 19.1666667,11.9666667 L19.1666667,11.9666667 L19.1666667,14.9666667 C19.1666667,15.1323521 19.0215738,15.2666667 18.8425926,15.2666667 L18.8425926,15.2666667 L16.5740741,15.2666667 L16.5740741,18.8666667 C16.5740741,19.0323521 16.4289812,19.1666667 16.25,19.1666667 C16.0710188,19.1666667 15.9259259,19.0323521 15.9259259,18.8666667 L15.9259259,18.8666667 L15.9259259,15.2666667 L13.6574074,15.2666667 C13.4784262,15.2666667 13.3333333,15.1323521 13.3333333,14.9666667 L13.3333333,14.9666667 L13.3333333,11.9666667 C13.3333333,11.8009812 13.4784262,11.6666667 13.6574074,11.6666667 L13.6574074,11.6666667 Z M4.58333333,0.833333333 C4.81345198,0.833333333 5,0.965722251 5,1.12903226 L5,1.12903226 L5,9.70430108 C5,9.86761108 4.81345198,10 4.58333333,10 C4.35321469,10 4.16666667,9.86761108 4.16666667,9.70430108 L4.16666667,9.70430108 L4.16666667,1.12903226 C4.16666667,0.965722251 4.35321469,0.833333333 4.58333333,0.833333333 Z M16.25,0.833333333 C16.4801186,0.833333333 16.6666667,0.965722251 16.6666667,1.12903226 L16.6666667,1.12903226 L16.6666667,9.70430108 C16.6666667,9.86761108 16.4801186,10 16.25,10 C16.0198814,10 15.8333333,9.86761108 15.8333333,9.70430108 L15.8333333,9.70430108 L15.8333333,1.12903226 C15.8333333,0.965722251 16.0198814,0.833333333 16.25,0.833333333 Z M10.4166667,0.833333333 C10.6467853,0.833333333 10.8333333,0.957698681 10.8333333,1.11111111 L10.8333333,1.11111111 L10.8333333,3.05555556 C10.8333333,3.20896799 10.6467853,3.33333333 10.4166667,3.33333333 C10.186548,3.33333333 10,3.20896799 10,3.05555556 L10,3.05555556 L10,1.11111111 C10,0.957698681 10.186548,0.833333333 10.4166667,0.833333333 Z" id="Filter"></path>
                    </g>
                </g>
            </g>
        </g>
    </g>
</svg>