<?xml version="1.0" encoding="UTF-8"?>
<svg width="180px" height="73px" viewBox="0 0 180 73" version="1.1" xmlns="http://www.w3.org/2000/svg" xmlns:xlink="http://www.w3.org/1999/xlink">
    <!-- Generator: Sketch 52.6 (67491) - http://www.bohemiancoding.com/sketch -->
    <title>Brand/Card/Small/BassPro</title>
    <desc>Created with Sketch.</desc>
    <g id="Symbols" stroke="none" stroke-width="1" fill="none" fill-rule="evenodd">
        <g id="Brand/Card/Small/T.J.-Maxx-Copy-2">
            <g id="Mask"></g>
            <g id="Spotify_Logo_Black_Coated" transform="translate(15.000000, 15.000000)" fill="#FFFFFF">
                <path d="M35.7675,19.9491964 C28.5369643,15.6551786 16.6103571,15.2603571 9.70794643,17.3552679 C8.59955357,17.6914286 7.42741071,17.0657143 7.09151786,15.9573214 C6.755625,14.8483929 7.38080357,13.6770536 8.49,13.3400893 C16.4134821,10.935 29.5850893,11.3994643 37.9090179,16.340625 C38.90625,16.9325893 39.2333036,18.2201786 38.6421429,19.2155357 C38.0507143,20.2125 36.7620536,20.5411607 35.7675,19.9491964 Z M35.5307143,26.3091964 C35.0236607,27.1323214 33.9474107,27.3902679 33.1253571,26.8850893 C27.0972321,23.1795536 17.9051786,22.10625 10.7734821,24.2710714 C9.84857143,24.5504464 8.87169643,24.0289286 8.59098214,23.1058929 C8.31214286,22.1809821 8.83392857,21.2059821 9.75696429,20.9247321 C17.9041071,18.4526786 28.0317857,19.65 34.9553571,23.9049107 C35.7774107,24.4111607 36.0361607,25.4879464 35.5307143,26.3091964 Z M32.7859821,32.4171429 C32.383125,33.0779464 31.5222321,33.2852679 30.8638393,32.8824107 C25.5961607,29.6630357 18.9661607,28.9358036 11.158125,30.7194643 C10.4057143,30.8919643 9.65598214,30.4202679 9.48428571,29.668125 C9.31178571,28.9157143 9.78160714,28.1659821 10.535625,27.9942857 C19.0802679,26.0408036 26.4099107,26.8816071 32.3223214,30.4944643 C32.9815179,30.8970536 33.1891071,31.7582143 32.7859821,32.4171429 Z M22.4989286,0.0634821429 C10.1105357,0.0634821429 0.0675,10.1059821 0.0675,22.494375 C0.0675,34.8835714 10.1105357,44.9258036 22.4989286,44.9258036 C34.8875893,44.9258036 44.9300893,34.8835714 44.9300893,22.494375 C44.9300893,10.1059821 34.8875893,0.0634821429 22.4989286,0.0634821429 Z" id="Fill-1"></path>
                <path d="M61.0952679,20.77125 C57.2223214,19.8476786 56.5325893,19.1994643 56.5325893,17.8376786 C56.5325893,16.550625 57.744375,15.6849107 59.5459821,15.6849107 C61.2924107,15.6849107 63.0238393,16.3425 64.8396429,17.69625 C64.8945536,17.7372321 64.9633929,17.7535714 65.0311607,17.7428571 C65.0989286,17.7326786 65.1586607,17.6957143 65.1985714,17.6394643 L67.0896429,14.97375 C67.1673214,14.8639286 67.1461607,14.7128571 67.0414286,14.62875 C64.880625,12.8949107 62.4474107,12.0519643 59.6033036,12.0519643 C55.4215179,12.0519643 52.5005357,14.5615179 52.5005357,18.1521429 C52.5005357,22.0025893 55.0202679,23.3659821 59.3745536,24.4183929 C63.080625,25.2720536 63.7060714,25.9869643 63.7060714,27.2657143 C63.7060714,28.6824107 62.44125,29.563125 60.4058036,29.563125 C58.1453571,29.563125 56.3011607,28.8016071 54.2383929,27.0152679 C54.1872321,26.9713393 54.1170536,26.9509821 54.0522321,26.9547321 C53.9841964,26.9603571 53.9217857,26.9919643 53.8783929,27.0441964 L51.7580357,29.5676786 C51.6691071,29.6724107 51.6803571,29.8288393 51.7829464,29.919375 C54.1832143,32.0619643 57.1347321,33.1939286 60.3200893,33.1939286 C64.82625,33.1939286 67.738125,30.7315179 67.738125,26.9207143 C67.738125,23.7 65.8138393,21.91875 61.0952679,20.77125" id="Fill-2"></path>
                <path d="M81.2041071,25.0877679 C81.2041071,27.8073214 79.5289286,29.7050893 77.1302679,29.7050893 C74.7589286,29.7050893 72.9701786,27.7210714 72.9701786,25.0877679 C72.9701786,22.4547321 74.7589286,20.4704464 77.1302679,20.4704464 C79.4903571,20.4704464 81.2041071,22.411875 81.2041071,25.0877679 Z M77.9330357,16.9516071 C75.9798214,16.9516071 74.3777679,17.7208929 73.0566964,19.2972321 L73.0566964,17.5229464 C73.0566964,17.3828571 72.943125,17.26875 72.8030357,17.26875 L69.3353571,17.26875 C69.1952679,17.26875 69.0819643,17.3828571 69.0819643,17.5229464 L69.0819643,37.2377679 C69.0819643,37.3778571 69.1952679,37.4919643 69.3353571,37.4919643 L72.8030357,37.4919643 C72.943125,37.4919643 73.0566964,37.3778571 73.0566964,37.2377679 L73.0566964,31.0149107 C74.3780357,32.4977679 75.9803571,33.2220536 77.9330357,33.2220536 C81.5622321,33.2220536 85.2361607,30.4283036 85.2361607,25.0877679 C85.2361607,19.7461607 81.5622321,16.9516071 77.9330357,16.9516071 Z" id="Fill-3"></path>
                <path d="M94.6534821,29.7334821 C92.1675,29.7334821 90.2933036,27.7360714 90.2933036,25.0877679 C90.2933036,22.4284821 92.1026786,20.4983036 94.5961607,20.4983036 C97.0982143,20.4983036 98.985,22.4957143 98.985,25.1458929 C98.985,27.8049107 97.1633036,29.7334821 94.6534821,29.7334821 Z M94.6534821,16.9516071 C89.9796429,16.9516071 86.3180357,20.5505357 86.3180357,25.1458929 C86.3180357,29.6911607 89.9544643,33.2523214 94.5961607,33.2523214 C99.2866071,33.2523214 102.959464,29.6654464 102.959464,25.0877679 C102.959464,20.5253571 99.3117857,16.9516071 94.6534821,16.9516071 Z" id="Fill-4"></path>
                <path d="M112.940357,17.26875 L109.124196,17.26875 L109.124196,13.3671429 C109.124196,13.2270536 109.011161,13.1132143 108.871071,13.1132143 L105.403661,13.1132143 C105.263304,13.1132143 105.149196,13.2270536 105.149196,13.3671429 L105.149196,17.26875 L103.481786,17.26875 C103.341964,17.26875 103.229196,17.3828571 103.229196,17.5229464 L103.229196,20.5033929 C103.229196,20.6432143 103.341964,20.7573214 103.481786,20.7573214 L105.149196,20.7573214 L105.149196,28.4694643 C105.149196,31.5859821 106.700357,33.1660714 109.759554,33.1660714 C111.003482,33.1660714 112.035536,32.9091964 113.008125,32.3576786 C113.087143,32.3134821 113.136429,32.2283036 113.136429,32.1377679 L113.136429,29.2995536 C113.136429,29.2119643 113.090625,29.1294643 113.015893,29.0833929 C112.940357,29.0359821 112.846339,29.0335714 112.768929,29.071875 C112.100893,29.4080357 111.455089,29.563125 110.733214,29.563125 C109.620804,29.563125 109.124196,29.0582143 109.124196,27.9259821 L109.124196,20.7573214 L112.940357,20.7573214 C113.080446,20.7573214 113.193214,20.6432143 113.193214,20.5033929 L113.193214,17.5229464 C113.193214,17.3828571 113.080446,17.26875 112.940357,17.26875" id="Fill-5"></path>
                <path d="M126.235982,17.2840179 L126.235982,16.8048214 C126.235982,15.3950893 126.776518,14.7664286 127.988839,14.7664286 C128.711786,14.7664286 129.2925,14.91 129.942857,15.1269643 C130.022946,15.1521429 130.106518,15.1395536 130.171607,15.0916071 C130.238571,15.0436607 130.276339,14.9667857 130.276339,14.8853571 L130.276339,11.9630357 C130.276339,11.8516071 130.204554,11.7525 130.097143,11.7195536 C129.410089,11.5154464 128.530982,11.3054464 127.214732,11.3054464 C124.011429,11.3054464 122.318571,13.1091964 122.318571,16.5198214 L122.318571,17.25375 L120.6525,17.25375 C120.512679,17.25375 120.398036,17.3678571 120.398036,17.5076786 L120.398036,20.5033929 C120.398036,20.6432143 120.512679,20.7573214 120.6525,20.7573214 L122.318571,20.7573214 L122.318571,32.6528571 C122.318571,32.7929464 122.431607,32.9067857 122.571429,32.9067857 L126.039107,32.9067857 C126.179196,32.9067857 126.293304,32.7929464 126.293304,32.6528571 L126.293304,20.7573214 L129.531161,20.7573214 L134.491071,32.6496429 C133.928036,33.8991964 133.374375,34.1477679 132.618482,34.1477679 C132.0075,34.1477679 131.364107,33.9653571 130.70625,33.6053571 C130.644375,33.5713393 130.57125,33.5657143 130.504286,33.5863393 C130.438125,33.6099107 130.382411,33.6589286 130.354286,33.7234821 L129.178929,36.3021429 C129.122946,36.4240179 129.170625,36.5670536 129.287946,36.6302679 C130.515,37.2948214 131.622857,37.5784821 132.991607,37.5784821 C135.552321,37.5784821 136.967679,36.3854464 138.215625,33.1765179 L144.231964,17.6300893 C144.261964,17.551875 144.253125,17.46375 144.205179,17.3941071 C144.1575,17.3255357 144.080625,17.2840179 143.996518,17.2840179 L140.386339,17.2840179 C140.278393,17.2840179 140.181429,17.3525893 140.146071,17.454375 L136.447768,28.0178571 L132.396964,17.4474107 C132.36,17.3488393 132.265446,17.2840179 132.160179,17.2840179 L126.235982,17.2840179" id="Fill-6"></path>
                <path d="M118.528125,17.26875 L115.060179,17.26875 C114.920089,17.26875 114.80625,17.3828571 114.80625,17.5229464 L114.80625,32.6528571 C114.80625,32.7929464 114.920089,32.9067857 115.060179,32.9067857 L118.528125,32.9067857 C118.667946,32.9067857 118.782054,32.7929464 118.782054,32.6528571 L118.782054,17.5229464 C118.782054,17.3828571 118.667946,17.26875 118.528125,17.26875" id="Fill-7"></path>
                <path d="M116.811696,10.3797321 C115.438125,10.3797321 114.323036,11.4921429 114.323036,12.8659821 C114.323036,14.2403571 115.438125,15.3538393 116.811696,15.3538393 C118.185,15.3538393 119.29875,14.2403571 119.29875,12.8659821 C119.29875,11.4921429 118.185,10.3797321 116.811696,10.3797321" id="Fill-8"></path>
                <path d="M147.334554,18.7738393 L146.699196,18.7738393 L146.699196,19.5841071 L147.334554,19.5841071 C147.651696,19.5841071 147.841071,19.4290179 147.841071,19.1785714 C147.841071,18.915 147.651696,18.7738393 147.334554,18.7738393 Z M147.746518,19.9296429 L148.436786,20.8960714 L147.854732,20.8960714 L147.233304,20.0097321 L146.699196,20.0097321 L146.699196,20.8960714 L146.211964,20.8960714 L146.211964,18.3345536 L147.354375,18.3345536 C147.949286,18.3345536 148.340893,18.6388393 148.340893,19.1515179 C148.340893,19.5715179 148.098214,19.828125 147.746518,19.9296429 Z M147.205446,17.4819643 C145.955357,17.4819643 145.009286,18.4757143 145.009286,19.6925893 C145.009286,20.9086607 145.948661,21.8892857 147.192589,21.8892857 C148.442411,21.8892857 149.389286,20.8960714 149.389286,19.6786607 C149.389286,18.4623214 148.449375,17.4819643 147.205446,17.4819643 Z M147.192589,22.1333036 C145.820089,22.1333036 144.752143,21.0310714 144.752143,19.6925893 C144.752143,18.3538393 145.834018,17.2392857 147.205446,17.2392857 C148.577679,17.2392857 149.645893,18.34125 149.645893,19.6786607 C149.645893,21.0171429 148.564821,22.1333036 147.192589,22.1333036 Z" id="Fill-9"></path>
            </g>
        </g>
    </g>
</svg>