<?xml version="1.0" encoding="UTF-8"?>
<svg width="50px" height="50px" viewBox="0 0 50 50" version="1.1" xmlns="http://www.w3.org/2000/svg" xmlns:xlink="http://www.w3.org/1999/xlink">
    <!-- Generator: Sketch 52.6 (67491) - http://www.bohemiancoding.com/sketch -->
    <title>Brand/Icon/BurgerKing</title>
    <desc>Created with Sketch.</desc>
    <defs>
        <polygon id="path-1" points="0 0 45.9997444 0 45.9997444 45.9923333 0 45.9923333"></polygon>
    </defs>
    <g id="Brand/Icon/BurgerKing" stroke="none" stroke-width="1" fill="none" fill-rule="evenodd">
        <rect fill="#FFFFFF" x="0" y="0" width="50" height="50"></rect>
        <g id="BurgerKing_logo" transform="translate(2.500000, 2.000000)">
            <g id="Group-3">
                <mask id="mask-2" fill="white">
                    <use xlink:href="#path-1"></use>
                </mask>
                <g id="Clip-2"></g>
                <path d="M0,23 C0,10.2972278 10.2971,0 22.9998722,0 C35.7025167,0 45.9997444,10.2972278 45.9997444,23 C45.9997444,35.7026444 35.7025167,46 22.9998722,46 C10.2971,46 0,35.7026444 0,23" id="Fill-1" fill="#FFFFFE" mask="url(#mask-2)"></path>
            </g>
            <path d="M33.2445833,7.98381111 C33.3423333,7.74448333 33.14415,7.50937222 33.14415,7.50937222 C33.14415,7.50937222 31.5902444,4.86641667 26.0933722,4.27991667 C23.1501389,3.96609444 19.1431556,4.56217778 16.3339611,6.07634444 C11.2455944,8.81845556 10.4836556,13.3350167 10.4836556,13.3350167 C10.4550333,13.4455444 10.4064778,13.78275 10.5208389,13.9261167 C10.6373722,14.0721667 10.8068056,14.0698667 11.0166167,13.9990778 C12.8134278,13.3926444 18.1661667,11.6169167 21.5442278,10.7208111 C26.3514833,9.44584444 30.3007111,8.67010556 32.8355667,8.23872778 C33.0150944,8.20806111 33.1766056,8.14915556 33.2445833,7.98381111" id="Fill-4" fill="#F4B827"></path>
            <path d="M38.7339167,29.2712056 C35.857,35.7343333 30.3366167,40.2312167 23.1022222,40.3334389 C17.8338167,40.4078056 13.1842389,38.6028167 9.82675,35.4555222 L7.79610556,36.3236444 L7.79904444,33.1798 C5.58644444,30.1951667 4.30393889,26.4203556 4.30393889,22.13175 C4.30393889,11.1477167 12.7160611,2.48936667 24.4496389,2.48936667 C26.3647722,2.48936667 28.0952667,2.78785556 29.4014111,3.08340556 C27.3903167,2.43978889 25.3922556,2.09095556 23.1676444,2.09095556 C10.5761667,2.09095556 2.10194444,12.3016778 2.10168889,22.8317167 C2.10130556,34.3060333 11.1033778,43.9182444 22.9184778,43.9182444 C34.2038111,43.9182444 40.29255,35.9617778 42.2397556,31.1765 L38.7339167,29.2712056" id="Fill-5" fill="#005C9C"></path>
            <path d="M35.8129167,27.0021278 C37.4689167,26.8131444 38.6145722,26.1481889 39.2438778,25.5301278 C39.8167056,24.9675222 39.9507444,24.1921667 39.9511278,23.6161444 C39.9743833,22.7701278 39.9511278,20.1000833 39.9511278,20.1000833 L35.5692444,21.04845 C35.5692444,21.04845 35.5691167,21.3788833 35.5677111,22.0714389 C35.5753778,22.7487889 35.9023611,23.1170444 36.6117833,22.9865833 C36.8346278,22.9508056 37.1773278,22.8413 37.1773278,22.8413 L37.1828222,23.6777333 C37.1793722,23.65435 37.2474778,24.1445056 36.1428389,24.3631333 C34.6979278,24.5899389 34.0414056,23.7007333 34.0235167,22.1295778 C34.0529056,20.4449556 35.0047222,19.4734611 36.1597056,19.2083222 C37.4590778,18.9102167 38.1952056,19.21995 38.6279889,19.2857556 C40.0789056,19.5032333 40.4906056,17.3266667 39.1702778,16.8167056 C38.1943111,16.4235333 36.9280333,16.3522333 35.7209167,16.5929667 C34.1088722,16.9147111 30.9389611,18.2636611 30.9306556,22.6475889 C30.9383222,26.1308111 33.5070389,27.2656056 35.8129167,27.0021278" id="Fill-6" fill="#D8232A"></path>
            <path d="M21.5685056,30.7352833 C21.5685056,30.7352833 22.9126,30.2733667 23.0296444,30.2329889 C24.1102611,29.8601333 24.5038167,29.2171556 24.4985778,28.1049778 C24.4852889,26.8977333 24.4832444,24.5434278 24.4832444,24.5434278 L27.6099667,28.1447167 C28.1173722,28.6697556 28.7543444,28.7142222 29.3365,28.5437667 C29.9394833,28.36705 30.4408833,27.8163278 30.4557056,27.0393111 C30.4609444,24.4380111 30.4536611,18.0887333 30.4536611,18.0887333 C30.4536611,18.0887333 29.6468722,18.2604667 28.9760389,18.4507278 C28.2042611,18.6696111 27.6109889,19.1613 27.6109889,20.4600333 C27.6109889,20.9197778 27.6092,23.5582611 27.6092,23.5582611 C27.6092,23.5582611 25.8500833,21.35205 24.6986778,20.2011556 C24.0838111,19.5865444 23.0664444,19.95365 23.0664444,19.95365 L21.5662056,20.40675 L21.5685056,30.7352833" id="Fill-7" fill="#D8232A"></path>
            <path d="M20.6218,20.6396889 C20.6218,20.6396889 19.6803333,20.9156889 18.9143056,21.1925833 C17.9186611,21.5526611 17.3458333,22.1283 17.3458333,23.6344167 C17.3458333,25.0173556 17.3427667,32.2171222 17.3427667,32.2171222 C17.3427667,32.2171222 18.2147222,31.9187611 19.0277722,31.61235 C20.1822444,31.1772667 20.6186056,30.5828444 20.6186056,29.3693389 C20.6186056,28.3268 20.6218,20.6396889 20.6218,20.6396889" id="Fill-8" fill="#D8232A"></path>
            <path d="M15.9492222,22.6823444 C15.0848056,22.2898111 14.3433111,22.7278333 14.0282111,23.2116 L11.3717111,27.7290556 L11.3671111,24.0871333 L8.23604444,25.3844611 L8.22646111,35.6848833 L10.43165,34.7601556 C10.43165,34.7601556 10.8652,34.6369778 11.1259944,34.2263 C11.3662167,33.8483333 11.3574,33.2132778 11.3574,33.2132778 L11.3603389,29.9476611 L13.8255556,32.5640389 C14.3668222,33.1260056 15.3614444,33.4133778 16.2386389,32.7053611 C17.0322667,32.0644278 16.9096,30.9721833 16.4673611,30.4824111 L14.2215389,28.2220222 C14.2215389,28.2220222 16.19775,25.1065444 16.5210278,24.5855944 C16.9497222,23.8949556 16.7341611,23.0383333 15.9492222,22.6823444" id="Fill-9" fill="#D8232A"></path>
            <path d="M14.7224278,34.7895444 C14.6065333,35.05775 14.8723111,35.3237833 14.8723111,35.3237833 C16.0120889,36.7545111 21.0726,38.5680611 26.5652556,37.2396833 C34.9547611,35.2109556 36.7274222,29.2773389 36.9281611,28.4386056 C36.96905,28.26815 37.0020167,27.9929167 36.8433167,27.8284667 C36.7101722,27.69085 36.5209333,27.6886778 36.2589889,27.7503944 C30.4325778,29.1199167 20.7373111,32.07925 15.1474167,34.4740611 C14.9068111,34.5771778 14.7978167,34.6153833 14.7224278,34.7895444" id="Fill-10" fill="#F4B827"></path>
            <path d="M9.74816667,21.2904611 C9.73986111,20.7223611 9.2989,20.4130111 8.53645,20.7958333 L8.53453333,22.6208833 C8.53453333,22.6208833 8.78101667,22.5115056 8.96246111,22.4274278 C9.40789444,22.2208111 9.75813333,21.84885 9.74816667,21.2904611 Z M8.52098889,19.6412333 C8.65694444,19.5878222 8.75635556,19.5428444 8.87071667,19.4873889 C9.28407778,19.2862667 9.57796667,18.9132833 9.58167222,18.4300278 C9.58563333,17.8799444 9.13227778,17.7376 8.5215,18.0529556 L8.52098889,19.6412333 Z M11.7498056,21.0297944 C11.7740833,22.4701056 10.7369111,23.2363889 9.38489444,23.7966944 L6.61633333,24.9726333 L6.60956111,17.4716944 C6.60956111,17.4716944 8.35462222,16.7598444 8.92348889,16.5531 C10.5412833,15.9646833 11.4925889,16.6735944 11.4925889,17.7551056 C11.4925889,18.4764111 11.1842611,19.0892333 10.5138111,19.6282 C11.1735278,19.7378333 11.7369,20.2798667 11.7498056,21.0297944 Z" id="Fill-11" fill="#D8232A"></path>
            <path d="M17.0059444,14.6984056 C17.0059444,14.0669278 16.5709889,13.8985167 16.0458222,14.0494222 C15.6207056,14.1715778 15.1251833,14.3649056 15.1251833,14.3649056 L15.1222444,19.0281556 C15.1171333,19.4926278 15.0455778,20.0738889 14.4732611,20.21815 C14.0339611,20.3289333 13.8260667,20.0354278 13.8253,19.5722333 L13.8191667,15.7551278 C13.8191667,15.1202 13.3776944,14.9299389 12.8540611,15.1042278 C12.2646222,15.3003667 11.9110611,15.4420722 11.9110611,15.4420722 C11.9110611,15.4420722 11.9168111,18.7444889 11.9096556,20.0645611 C11.9014778,21.6137389 12.9694444,22.3859 14.5966944,21.9055833 C16.0315111,21.4817444 16.9898444,20.6776389 17.0079889,18.6162 L17.0059444,14.6984056" id="Fill-12" fill="#D8232A"></path>
            <path d="M32.3932,16.6256778 C32.8065611,16.5361056 33.0645444,16.2442611 33.0645444,15.7391556 C33.0645444,15.2833722 33.0663333,14.9379889 33.0663333,14.9379889 L30.8202556,15.4284 L30.8246,14.1073056 C30.8246,14.1073056 31.9257889,13.8739833 32.2314333,13.8072833 C32.6155333,13.7232056 32.8166556,13.5135222 32.8166556,13.07435 C32.8166556,12.6648222 32.8139722,12.3108778 32.8139722,12.3108778 L30.8242167,12.7329278 L30.8229389,11.68515 C30.8229389,11.68515 31.8579389,11.4698444 32.4158167,11.3524167 C32.8496222,11.2611833 32.9932444,10.9635889 32.9932444,10.5544444 C32.9932444,10.2880278 32.9977167,9.76005 32.9977167,9.76005 C32.0051389,9.93459444 30.1177333,10.3130722 28.9414111,10.5817889 L28.9256944,17.4202 C28.9256944,17.4202 31.1624444,16.8931167 32.3932,16.6256778" id="Fill-13" fill="#D8232A"></path>
            <path d="M19.4150667,16.3490389 C19.4174944,16.3482722 20.5267333,15.7753167 20.5139556,14.8659222 C20.5032222,14.0885222 19.7877944,14.25885 19.4157056,14.3950611 L19.4150667,16.3490389 Z M19.4183889,17.4038444 C19.4183889,17.4038444 19.4143,18.7140778 19.4130222,19.2425667 C19.4080389,19.7371944 19.0694278,20.0954833 18.6415,20.2592944 C18.6415,20.2746278 18.6415,20.2439611 18.6415,20.2592944 C18.2834667,20.3820889 17.5228056,20.64365 17.5228056,20.64365 L17.5253611,13.6022 C17.5253611,13.6022 19.0966444,13.0554389 20.0207333,12.8403889 C21.4561889,12.5065056 22.4773889,13.1597056 22.4587333,14.3198 C22.4497889,15.4229056 21.8340278,16.0936111 21.28075,16.5518222 L22.4966833,17.7193278 C22.8704333,18.0818333 22.8963722,18.7360556 22.4762389,19.1311444 C22.2268167,19.3654889 21.5602,19.6077556 21.0384833,19.07735 L19.4183889,17.4038444 Z" id="Fill-14" fill="#D8232A"></path>
            <path d="M35.3135611,12.5623444 C35.3156056,12.5622167 36.41015,12.1461722 36.3971167,11.2685944 C36.3858722,10.5271 35.6556222,10.66165 35.3112611,10.7385722 L35.3135611,12.5623444 Z M33.4784167,16.42085 L33.4811,9.66868889 C33.4811,9.66868889 35.4527111,9.31985556 35.9620333,9.25456111 C37.3748722,9.07375556 38.3232389,9.85792778 38.3042,10.9724056 C38.2962778,11.9518222 37.6807722,12.5420278 37.1575222,12.8954611 C37.1575222,12.8954611 38.1182833,13.9783778 38.3761389,14.26575 C38.7221611,14.6513833 38.7070833,15.3117389 38.1954611,15.6347611 C37.6917611,15.9531833 37.1931722,15.7861778 36.9038833,15.4669889 L35.3168833,13.60565 C35.3168833,13.60565 35.32225,14.7502833 35.3208444,15.2500222 C35.3156056,15.7474611 35.0283611,16.1102222 34.5120111,16.2174278 L33.4784167,16.42085 Z" id="Fill-15" fill="#D8232A"></path>
            <path d="M28.4830722,13.5863556 L25.6865278,14.2217944 C25.6865278,14.2217944 25.6834611,14.5172167 25.6824389,15.0003444 C25.6861444,15.3617 25.9404222,15.5961722 26.3048444,15.5205278 C26.5353556,15.4726111 26.7197389,15.4307 26.7197389,15.4307 L26.7234444,16.20695 C26.7266389,16.5143833 26.2652333,16.7160167 25.7867056,16.7041333 C25.1156167,16.6872667 24.7439111,16.1660611 24.7338167,15.1738667 C24.7547722,13.8693833 25.3683611,13.1037389 26.2044111,12.8894556 C26.6219889,12.7826333 27.0017444,12.8348944 27.2962722,12.8727167 C28.0175778,12.98925 28.4319611,12.6420778 28.4466556,12.0463778 C28.4621167,11.4085111 27.8956778,11.0140611 26.6815333,11.0561 C24.0489278,11.1472056 22.7026611,13.0385722 22.7026611,15.2970444 C22.7026611,17.6089278 24.21325,18.6298722 26.0564444,18.2968833 C27.0988556,18.0864333 27.6171222,17.7482056 27.9757944,17.4337444 C28.3345944,17.1186444 28.4828167,16.6476556 28.4833278,16.2455389 L28.4830722,13.5863556" id="Fill-16" fill="#D8232A"></path>
            <path d="M17.4651778,6.02433889 C14.3808778,7.38632222 12.2983556,10.6267667 12.1843778,11.9980778 C12.1390167,12.5439444 12.8622389,12.6220167 12.9300889,12.0426722 C13.5811167,9.54091111 15.5730444,7.18123889 17.4651778,6.02433889" id="Fill-17" fill="#FFFFFE"></path>
            <path d="M27.6845889,8.34925556 C29.3485111,7.94113333 30.2613556,7.87954444 30.2782222,7.13677222 C30.3069722,5.89285556 26.7573056,4.44998889 23.5063833,4.71129444 C26.8187667,4.93247778 28.8054556,6.20782778 28.8160611,7.09652222 C28.82245,7.65887222 28.3358722,8.15439444 27.6845889,8.34925556" id="Fill-18" fill="#FFFFFE"></path>
            <path d="M28.7158833,35.8527833 C31.21215,34.8708111 33.6106667,32.9959278 34.9372556,30.1869889 C35.3204611,29.3748333 34.2131389,28.9603222 33.9007222,29.9135444 C33.1237056,31.9103278 31.5271222,34.2546667 28.7158833,35.8527833" id="Fill-19" fill="#FFFFFE"></path>
            <path d="M41.1455944,27.7998444 L41.4272167,27.7998444 C41.5800389,27.7998444 41.7733667,27.8280833 41.7733667,28.0091444 C41.7733667,28.2144833 41.6323,28.2425944 41.4433167,28.2425944 L41.1455944,28.2425944 L41.1455944,27.7998444 Z M40.8114556,29.2245667 L41.1455944,29.2245667 L41.1455944,28.5042833 L41.3547667,28.5042833 L41.7650611,29.2245667 L42.1153,29.2245667 L41.6645,28.4881833 C41.9141778,28.4679944 42.10725,28.3472444 42.10725,28.0373833 C42.10725,27.6711722 41.8698389,27.5384111 41.4474056,27.5384111 L40.8114556,27.5384111 L40.8114556,29.2245667 Z M39.8657722,28.3834056 C39.8657722,29.3011056 40.5941056,29.8925889 41.4112444,29.8925889 C42.228,29.8925889 42.9564611,29.3011056 42.9564611,28.3834056 C42.9564611,27.4699222 42.228,26.8825278 41.4112444,26.8825278 C40.5941056,26.8825278 39.8657722,27.4699222 39.8657722,28.3834056 Z M40.2761944,28.3834056 C40.2761944,27.6992833 40.7792556,27.2044 41.4112444,27.2044 C42.0349278,27.2044 42.5459111,27.6992833 42.5459111,28.3834056 C42.5459111,29.0716167 42.0349278,29.5707167 41.4112444,29.5707167 C40.7792556,29.5707167 40.2761944,29.0716167 40.2761944,28.3834056 Z" id="Fill-20" fill="#D8232A"></path>
        </g>
    </g>
</svg>