<?xml version="1.0" encoding="UTF-8"?>
<svg width="305px" height="205px" viewBox="0 0 305 205" version="1.1" xmlns="http://www.w3.org/2000/svg" xmlns:xlink="http://www.w3.org/1999/xlink">
    <!-- Generator: Sketch 51.2 (57519) - http://www.bohemiancoding.com/sketch -->
    <title>Amazon Gift Card</title>
    <desc>Created with Sketch.</desc>
    <defs>
        <path d="M0.0664197531,9.42930009 C0.931817416,0.798888889 9.96296296,0.798888889 9.96296296,0.798888889 L259.037037,0.798888889 C269,0.798888889 269,10.7988889 269,10.7988889 L269,160 C269,170 259.037037,170 259.037037,170 L9.96296296,170 C1.87510142,170 0.352907599,163.409925 0.0664197531,160.929325 L0.0664197531,9.42930009 L0.0664197531,9.42930009 L0.0664197531,9.42930009 Z" id="path-1"></path>
    </defs>
    <g id="Gift-Cards" stroke="none" stroke-width="1" fill="none" fill-rule="evenodd">
        <g id="Home/Gift-Card-(Amazon)" transform="translate(-35.000000, -144.000000)">
            <g id="Images/Amazon-Gift-Card" transform="translate(53.000000, 157.000000)">
                <g id="a_generic">
                    <g id="Group-3">
                        <mask id="mask-2" fill="white">
                            <use xlink:href="#path-1"></use>
                        </mask>
                        <g id="Clip-2"></g>
                        <polygon id="Fill-1" fill="#0E0D0C" mask="url(#mask-2)" points="0.0664197531 170 269.06642 170 269.06642 0.666666667 0.0664197531 0.666666667"></polygon>
                    </g>
                    <path d="M102.30856,59.63 C102.30856,58.9744444 102.866486,58.4477778 103.548395,58.4477778 C104.23584,58.4477778 104.793765,58.9744444 104.793765,59.63 C104.793765,60.2833333 104.23584,60.8133333 103.548395,60.8133333 C102.866486,60.8133333 102.30856,60.2833333 102.30856,59.63" id="Fill-4" fill="#FFFFFE"></path>
                    <path d="M86.8582181,72.0666667 C86.8582181,69.9211111 85.8630288,67.52 83.3446132,67.52 C80.8051646,67.52 79.7468765,69.7944444 79.7468765,72.0666667 C79.7468765,74.2755556 80.8892963,76.4222222 83.3446132,76.4222222 C85.6515926,76.4222222 86.8582181,74.2977778 86.8582181,72.0666667 L86.8582181,72.0666667 Z M88.1910412,76.7822222 C88.1700082,80.0555556 86.9213169,82.0511111 83.3446132,82.0511111 C81.1649383,82.0511111 79.0062963,81.0744444 78.814786,78.7377778 L80.148716,78.7377778 C80.444284,80.3522222 81.8634527,80.9255556 83.3446132,80.9255556 C85.79993,80.9255556 86.8582181,79.46 86.8582181,76.7822222 L86.8582181,75.2955556 L86.8150453,75.2955556 C86.2017695,76.6344444 84.9110123,77.5488889 83.3446132,77.5488889 C79.8520412,77.5488889 78.4129465,75.0422222 78.4129465,71.9188889 C78.4129465,68.9011111 80.1907819,66.3955556 83.3446132,66.3955556 C84.9320453,66.3955556 86.2859012,67.3933333 86.8150453,68.6044444 L86.8582181,68.6044444 L86.8582181,66.7133333 L88.1910412,66.7133333 L88.1910412,76.7822222 L88.1910412,76.7822222 Z" id="Fill-5" fill="#EB902D"></path>
                    <path d="M90.4382428,77.6755556 L91.7710658,77.6755556 L91.7710658,66.7133333 L90.4382428,66.7133333 L90.4382428,77.6755556 Z M90.4382428,64.6544444 L91.7710658,64.6544444 L91.7710658,62.5077778 L90.4382428,62.5077778 L90.4382428,64.6544444 Z" id="Fill-6" fill="#EB902D"></path>
                    <path d="M98.0145226,67.8388889 L95.8558807,67.8388889 L95.8558807,77.6755556 L94.5230576,77.6755556 L94.5230576,67.8388889 L92.6599835,67.8388889 L92.6599835,66.7133333 L94.5230576,66.7133333 L94.5230576,65.7144444 C94.5020247,63.8244444 95.0300617,62.5077778 97.1676708,62.5077778 C97.5495844,62.5077778 97.8661852,62.5288889 98.2901646,62.5922222 L98.2901646,63.74 C97.9303909,63.6755556 97.633716,63.6333333 97.3160082,63.6333333 C95.8348477,63.6333333 95.8769136,64.5688889 95.8558807,65.7577778 L95.8558807,66.7133333 L98.0145226,66.7133333 L98.0145226,67.8388889" id="Fill-7" fill="#EB902D"></path>
                    <path d="M100.449914,66.7133333 L102.671654,66.7133333 L102.671654,67.8388889 L100.449914,67.8388889 L100.449914,75.2333333 C100.449914,76.1033333 100.576111,76.6133333 101.529235,76.6766667 C101.910041,76.6766667 102.290848,76.6555556 102.671654,76.6133333 L102.671654,77.7611111 C102.269815,77.7611111 101.889008,77.8022222 101.487169,77.8022222 C99.7093333,77.8022222 99.0949506,77.2077778 99.1159835,75.3388889 L99.1159835,67.8388889 L97.2108436,67.8388889 L97.2108436,66.7133333 L99.1159835,66.7133333 L99.1159835,63.4211111 L100.449914,63.4211111 L100.449914,66.7133333" id="Fill-8" fill="#EB902D"></path>
                    <path d="M116.07184,70.1544444 C115.712066,68.52 114.716877,67.52 112.981107,67.52 C110.420626,67.52 109.150901,69.8577778 109.150901,72.1944444 C109.150901,74.5322222 110.420626,76.8677778 112.981107,76.8677778 C114.632745,76.8677778 115.986601,75.5722222 116.155971,73.7455556 L117.489901,73.7455556 C117.130128,76.3788889 115.415391,77.9933333 112.981107,77.9933333 C109.636872,77.9933333 107.816971,75.3388889 107.816971,72.1944444 C107.816971,69.05 109.636872,66.3955556 112.981107,66.3955556 C115.310226,66.3955556 117.109095,67.6488889 117.404663,70.1544444 L116.07184,70.1544444" id="Fill-9" fill="#EB902D"></path>
                    <path d="M125.808975,71.6844444 L125.766909,71.6844444 C125.597539,72.0033333 125.004189,72.11 124.644416,72.1733333 C122.380609,72.5766667 119.565519,72.5555556 119.565519,74.7011111 C119.565519,76.04 120.751111,76.8677778 121.999802,76.8677778 C124.03114,76.8677778 125.830008,75.5722222 125.808975,73.4277778 L125.808975,71.6844444 L125.808975,71.6844444 Z M118.697634,70.07 C118.823831,67.5 120.623807,66.3955556 123.121189,66.3955556 C125.046255,66.3955556 127.142905,66.99 127.142905,69.9211111 L127.142905,75.7433333 C127.142905,76.2533333 127.396407,76.55 127.925551,76.55 C128.073889,76.55 128.243259,76.5066667 128.348424,76.4644444 L128.348424,77.59 C128.052856,77.6544444 127.840313,77.6755556 127.480539,77.6755556 C126.126683,77.6755556 125.915247,76.91 125.915247,75.7633333 L125.872074,75.7633333 C124.941091,77.1855556 123.989074,77.9933333 121.893531,77.9933333 C119.882119,77.9933333 118.231588,76.9955556 118.231588,74.7855556 C118.231588,71.7066667 121.216049,71.6 124.094239,71.26 C125.194593,71.1322222 125.808975,70.9833333 125.808975,69.7733333 C125.808975,67.9677778 124.517111,67.52 122.951819,67.52 C121.301288,67.52 120.07363,68.2866667 120.030457,70.07 L118.697634,70.07 L118.697634,70.07 Z" id="Fill-10" fill="#EB902D"></path>
                    <path d="M129.281621,66.7133333 L130.50928,66.7133333 L130.50928,69.2844444 L130.552453,69.2844444 C131.228827,67.52 132.709988,66.4811111 134.679333,66.5655556 L134.679333,67.9033333 C132.266082,67.7766667 130.615551,69.56 130.615551,71.8333333 L130.615551,77.6755556 L129.281621,77.6755556 L129.281621,66.7133333" id="Fill-11" fill="#EB902D"></path>
                    <path d="M139.488123,76.8677778 C142.324247,76.8677778 143.319436,74.4666667 143.319436,72.1944444 C143.319436,69.9211111 142.324247,67.52 139.488123,67.52 C136.947568,67.52 135.91142,69.9211111 135.91142,72.1944444 C135.91142,74.4666667 136.947568,76.8677778 139.488123,76.8677778 L139.488123,76.8677778 Z M144.651152,77.6755556 L143.425708,77.6755556 L143.425708,75.5933333 L143.382535,75.5933333 C142.811325,77.0166667 141.075556,77.9933333 139.488123,77.9933333 C136.164922,77.9933333 134.578597,75.2955556 134.578597,72.1944444 C134.578597,69.0933333 136.164922,66.3955556 139.488123,66.3955556 C141.117621,66.3955556 142.70616,67.2233333 143.276263,68.7966667 L143.319436,68.7966667 L143.319436,62.5077778 L144.651152,62.5077778 L144.651152,77.6755556 L144.651152,77.6755556 Z" id="Fill-12" fill="#EB902D"></path>
                    <path d="M69.8204444,65.6455556 C65.093572,69.1477778 58.2346255,71.0111111 52.3265885,71.0111111 C44.0484733,71.0111111 36.6006049,67.9411111 30.9593539,62.8244444 C30.5121276,62.4277778 30.9095391,61.88 31.4408971,62.1877778 C37.5271605,65.7455556 45.0547325,67.8877778 52.8203086,67.8877778 C58.0674691,67.8877778 63.8304897,66.7955556 69.134107,64.5344444 C69.934465,64.1944444 70.6064115,65.0666667 69.8204444,65.6455556" id="Fill-13" fill="#EB902D"></path>
                    <path d="M71.7931111,63.3888889 C71.1864774,62.61 67.791321,63.0211111 66.2658807,63.2044444 C65.8031564,63.2577778 65.7312016,62.85 66.1474321,62.5611111 C68.857358,60.6533333 73.2997325,61.2055556 73.8078436,61.8411111 C74.3325597,62.4877778 73.6750041,66.9522222 71.1410905,69.0811111 C70.747,69.4077778 70.3750494,69.2411111 70.5488477,68.8033333 C71.1145226,67.3666667 72.3975309,64.1633333 71.7931111,63.3888889" id="Fill-14" fill="#EB902D"></path>
                    <path d="M66.3799012,49.0766667 L66.3799012,47.2188889 C66.3799012,46.9411111 66.5891235,46.75 66.8426255,46.75 L75.1251687,46.75 C75.3908477,46.75 75.6033909,46.9444444 75.6033909,47.2188889 L75.6033909,48.8088889 C75.6033909,49.0766667 75.3753498,49.4188889 74.9801523,49.9788889 L70.6894362,56.1244444 C72.2790823,56.0911111 73.967251,56.3244444 75.4096667,57.1411111 C75.7428724,57.3288889 75.8270041,57.6 75.856893,57.87 L75.856893,59.8455556 C75.856893,60.12 75.5535761,60.4355556 75.2425103,60.2688889 C72.6964198,58.9322222 69.3090123,58.7788889 66.4939218,60.2877778 C66.2016749,60.4433333 65.901679,60.1277778 65.901679,59.8577778 L65.901679,57.9755556 C65.901679,57.6677778 65.909428,57.1566667 66.2127449,56.7 L71.1831564,49.5411111 L66.8536955,49.5411111 C66.5891235,49.5411111 66.3799012,49.3522222 66.3799012,49.0766667" id="Fill-15" fill="#FFFFFE"></path>
                    <path d="M36.1578066,60.66 L33.6416049,60.66 C33.4036008,60.6455556 33.2098765,60.4633333 33.1899506,60.2388889 L33.1899506,47.2533333 C33.1899506,46.9933333 33.4069218,46.7888889 33.6759218,46.7888889 L36.0249671,46.7844444 C36.2673992,46.7955556 36.4688724,46.9866667 36.4876914,47.2188889 L36.4876914,48.9166667 L36.5286502,48.9166667 C37.1408189,47.2755556 38.2898807,46.5111111 39.8452099,46.5111111 C41.420465,46.5111111 42.4101193,47.2755556 43.1197037,48.9166667 C43.7263374,47.2755556 45.1189383,46.5111111 46.5945638,46.5111111 C47.6572798,46.5111111 48.8063416,46.9444444 49.5114979,47.93 C50.312963,49.0233333 50.1491276,50.6044444 50.1491276,51.9977778 L50.1491276,60.1955556 C50.1491276,60.4555556 49.9299424,60.66 49.6598354,60.66 L47.1480617,60.66 C46.8901317,60.6433333 46.6897654,60.4433333 46.6897654,60.1955556 L46.6897654,53.3122222 C46.6897654,52.7633333 46.7384733,51.3988889 46.6167037,50.8822222 C46.4307284,50.0066667 45.8661605,49.7588889 45.1366502,49.7588889 C44.5266955,49.7588889 43.8934938,50.1655556 43.6355638,50.8288889 C43.3732058,51.4833333 43.3964527,52.58 43.3964527,53.3122222 L43.3964527,60.1955556 C43.3964527,60.4555556 43.1761605,60.66 42.9149095,60.66 L40.3998148,60.66 C40.1407778,60.6433333 39.9404115,60.4433333 39.9404115,60.1955556 L39.9404115,53.3122222 C39.9404115,51.8633333 40.1762016,49.7322222 38.3839753,49.7322222 C36.575144,49.7322222 36.6470988,51.8155556 36.6470988,53.3122222 L36.6470988,60.1955556 C36.6470988,60.4555556 36.4268066,60.66 36.1578066,60.66" id="Fill-16" fill="#FFFFFE"></path>
                    <path d="M82.7623333,49.1611111 C80.8992593,49.1611111 80.7852387,51.7044444 80.7852387,53.2844444 C80.7852387,54.8688889 80.7586708,58.2577778 82.7313374,58.2577778 C84.6885062,58.2577778 84.7803868,55.5233333 84.7803868,53.8633333 C84.7803868,52.7633333 84.733893,51.4566667 84.4084362,50.4177778 C84.1239383,49.5144444 83.5582634,49.1611111 82.7623333,49.1611111 L82.7623333,49.1611111 Z M82.7313374,46.5111111 C86.4763045,46.5111111 88.497679,49.7322222 88.497679,53.8333333 C88.497679,57.7888889 86.2637613,60.9322222 82.7313374,60.9322222 C79.0705021,60.9322222 77.0635185,57.7088889 77.0635185,53.6922222 C77.0635185,49.6511111 79.089321,46.5111111 82.7313374,46.5111111 L82.7313374,46.5111111 Z" id="Fill-17" fill="#FFFFFE"></path>
                    <path d="M93.350749,60.66 L90.8389753,60.66 C90.5843663,60.6433333 90.384,60.4433333 90.384,60.1955556 L90.379572,47.2111111 C90.4028189,46.9666667 90.6120412,46.7888889 90.8622222,46.7888889 L93.2024115,46.7844444 C93.4227037,46.7955556 93.605358,46.9444444 93.6540658,47.1455556 L93.6540658,49.1333333 L93.6961317,49.1333333 C94.4012881,47.36 95.3920494,46.5111111 97.1333539,46.5111111 C98.2602757,46.5111111 99.3639506,46.9166667 100.073535,48.0411111 C100.729984,49.0811111 100.729984,50.8288889 100.729984,52.0822222 L100.729984,60.2488889 C100.700095,60.4844444 100.498621,60.66 100.24844,60.66 L97.7244897,60.66 C97.4864856,60.6455556 97.3005103,60.47 97.2739424,60.2488889 L97.2739424,53.2022222 C97.2739424,51.7844444 97.4333498,49.7011111 95.6953663,49.7011111 C95.0854115,49.7011111 94.5230576,50.1155556 94.2385597,50.7455556 C93.885428,51.5377778 93.8411481,52.3288889 93.8411481,53.2022222 L93.8411481,60.1955556 C93.8367202,60.4555556 93.615321,60.66 93.350749,60.66" id="Fill-18" fill="#FFFFFE"></path>
                    <path d="M129.010407,60.6644444 C128.748049,60.6577778 128.538827,60.4555556 128.538827,60.1955556 L128.538827,47.2144444 C128.554325,46.9866667 128.755798,46.8 128.994909,46.7888889 L129.91593,46.7888889 C130.170539,46.7888889 130.375333,46.9666667 130.401901,47.2144444 L130.401901,49.1111111 C131.05835,47.6022222 132.284901,46.4333333 133.832481,46.4333333 L134.021778,46.4333333 C135.667881,46.4333333 136.867864,47.6488889 137.315091,49.4188889 C138.012498,47.6755556 139.325395,46.4333333 141.047881,46.4333333 L141.246033,46.4333333 C142.467049,46.4333333 143.641572,47.2233333 144.253741,48.4255556 C144.841556,49.5711111 144.818309,51.1033333 144.818309,52.39 L144.818309,60.1955556 C144.818309,60.4477778 144.617942,60.6455556 144.374403,60.6644444 L143.259658,60.6644444 C143.021654,60.6577778 142.826823,60.4844444 142.792506,60.2655556 L142.792506,52.39 C142.792506,51.4611111 142.842321,50.4733333 142.463728,49.63 C142.079601,48.7644444 141.343449,48.2233333 140.558588,48.1822222 C139.678527,48.2277778 138.87042,48.8677778 138.351239,49.7355556 C137.671543,50.8588889 137.689255,51.8688889 137.689255,53.1822222 L137.689255,60.2655556 C137.659366,60.4822222 137.473391,60.6533333 137.242029,60.6644444 L136.141675,60.6644444 C135.881531,60.6577778 135.67563,60.4555556 135.67563,60.1955556 L135.667881,51.8688889 C135.667881,51.1033333 135.618066,50.2044444 135.266041,49.5188889 C134.859774,48.7344444 134.128049,48.2233333 133.369757,48.1822222 C132.571613,48.2277778 131.772362,48.8366667 131.29414,49.5455556 C130.681971,50.4477778 130.570165,51.5677778 130.570165,52.7166667 L130.565737,60.1955556 C130.565737,60.4477778 130.364263,60.6455556 130.109654,60.6644444 L129.010407,60.6644444" id="Fill-19" fill="#FFFFFE"></path>
                    <path d="M121.67656,59.1611111 C122.85551,59.1222222 123.782066,58.39 124.335564,57.1688889 C124.824856,56.0744444 124.920058,54.8188889 124.920058,53.6166667 C124.920058,52.3055556 124.779469,50.9377778 124.168407,49.8166667 C123.61823,48.8411111 122.673963,48.2188889 121.673239,48.1822222 C120.564029,48.2233333 119.571053,48.9788889 119.066263,50.1433333 C118.61793,51.1566667 118.48177,52.4966667 118.48177,53.6166667 C118.48177,54.8766667 118.641177,56.3155556 119.161465,57.4133333 C119.66072,58.4477778 120.637091,59.1222222 121.67656,59.1611111 L121.67656,59.1611111 Z M121.414202,60.9377778 C117.84414,60.9377778 116.238996,57.2788889 116.238996,53.6166667 C116.238996,49.7622222 118.117568,46.4333333 121.72416,46.4333333 L121.911243,46.4333333 C125.417099,46.4333333 127.158403,49.9833333 127.158403,53.6466667 C127.158403,57.5222222 125.227802,60.9377778 121.604605,60.9377778 L121.512724,60.9322222 L121.414202,60.9377778 L121.414202,60.9377778 Z" id="Fill-20" fill="#FFFFFE"></path>
                    <path d="M110.244613,59.1077778 C111.846436,59.0544444 112.692181,57.7633333 113.041992,56.0911111 C113.105091,55.8777778 113.268926,55.7255556 113.500288,55.7255556 L114.563004,55.7144444 C114.813185,55.7288889 115.04344,55.9233333 115.025728,56.1555556 C114.532008,59 112.8217,60.9377778 110.381881,60.9377778 L110.283358,60.9322222 L110.188156,60.9377778 C106.641342,60.9377778 105.111473,57.36 105.111473,53.7266667 C105.111473,50.1155556 106.663481,46.4333333 110.214724,46.4333333 L110.405128,46.4333333 C112.870407,46.4333333 114.630531,48.3388889 115.01023,51.1944444 C115.01023,51.4033333 114.813185,51.5855556 114.585144,51.6133333 L113.469292,51.6022222 C113.23793,51.5633333 113.082951,51.3655556 113.048634,51.1366667 C112.782955,49.5533333 111.869683,48.2888889 110.358634,48.2355556 C107.938741,48.3144444 107.255724,51.3011111 107.255724,53.59 C107.255724,55.8055556 107.828041,59.0277778 110.244613,59.1077778" id="Fill-21" fill="#FFFFFE"></path>
                    <path d="M62.3172263,60.63 C62.15007,60.7777778 61.9032099,60.7911111 61.7128066,60.6877778 C60.8825597,59.99 60.7309012,59.6666667 60.2714979,59 C58.8910741,60.4177778 57.9080617,60.8411111 56.1169424,60.8411111 C53.9970453,60.8411111 52.3465144,59.5255556 52.3465144,56.8977778 C52.3465144,54.8422222 53.4546173,53.4477778 55.0354074,52.7633333 C56.3981193,52.1577778 58.3099012,52.0511111 59.7711358,51.8866667 L59.7711358,51.56 C59.7711358,50.9577778 59.8209506,50.2455556 59.4667119,49.7244444 C59.1600741,49.2588889 58.5722593,49.07 58.0475432,49.07 C57.0888848,49.07 56.234284,49.56 56.0261687,50.5844444 C55.9807819,50.8088889 55.8169465,51.0422222 55.5900123,51.0488889 L53.1468724,50.7822222 C52.9409712,50.7411111 52.710716,50.5733333 52.7671728,50.2566667 C53.3284198,47.2788889 56.0073498,46.3855556 58.4051029,46.3855556 C59.6305473,46.3855556 61.2312634,46.7122222 62.1987778,47.6488889 C63.4242222,48.7944444 63.3024527,50.3266667 63.3024527,51.9944444 L63.3024527,55.9355556 C63.3024527,57.1277778 63.7961728,57.6444444 64.2588971,58.2844444 C64.4183045,58.5122222 64.4559424,58.7877778 64.2511481,58.9544444 C63.7308601,59.3888889 62.8209095,60.1811111 62.3172263,60.6344444 L62.3172263,60.63 L62.3172263,60.63 Z M59.7711358,54.4644444 C59.7711358,55.4477778 59.7977037,56.27 59.3039835,57.1411111 C58.898823,57.8544444 58.2611934,58.2933333 57.558251,58.2933333 C56.5918436,58.2933333 56.0217407,57.5566667 56.0217407,56.4611111 C56.0217407,54.3088889 57.9456996,53.9133333 59.7711358,53.9133333 L59.7711358,54.4644444 L59.7711358,54.4644444 Z" id="Fill-22" fill="#FFFFFE"></path>
                    <path d="M29.2756132,60.63 C29.1084568,60.7777778 28.8726667,60.7911111 28.6833704,60.6877778 C27.8442675,59.99 27.693716,59.6666667 27.2376337,59 C25.8527819,60.4177778 24.8741975,60.8411111 23.0797572,60.8411111 C20.9587531,60.8411111 19.3082222,59.5255556 19.3082222,56.8977778 C19.3082222,54.8422222 20.4196461,53.4477778 21.9993292,52.7633333 C23.3675761,52.1577778 25.277144,52.0511111 26.7372716,51.8866667 L26.7372716,51.56 C26.7372716,50.9577778 26.7826584,50.2455556 26.4339547,49.7244444 C26.1262099,49.2588889 25.5350741,49.07 25.019214,49.07 C24.0583416,49.07 23.2015267,49.56 22.9889835,50.5844444 C22.9502387,50.8088889 22.7830823,51.0422222 22.5528272,51.0488889 L20.1130082,50.7822222 C19.904893,50.7411111 19.6757449,50.5733333 19.7377366,50.2566667 C20.2956626,47.2788889 22.9657366,46.3855556 25.3679177,46.3855556 C26.5966831,46.3855556 28.1985062,46.7122222 29.1660206,47.6488889 C30.390358,48.7944444 30.2730165,50.3266667 30.2730165,51.9944444 L30.2730165,55.9355556 C30.2730165,57.1277778 30.7623086,57.6444444 31.2250329,58.2844444 C31.3811193,58.5122222 31.4231852,58.7877778 31.213963,58.9544444 C30.7014239,59.3888889 29.7837243,60.1811111 29.2822551,60.6344444 L29.2756132,60.63 L29.2756132,60.63 Z M26.7372716,54.4644444 C26.7372716,55.4477778 26.7594115,56.27 26.2634774,57.1411111 C25.8649588,57.8544444 25.2306502,58.2933333 24.5210658,58.2933333 C23.5535514,58.2933333 22.9889835,57.5566667 22.9889835,56.4611111 C22.9889835,54.3088889 24.9162634,53.9133333 26.7372716,53.9133333 L26.7372716,54.4644444 L26.7372716,54.4644444 Z" id="Fill-23" fill="#FFFFFE"></path>
                    <path d="M186.897436,92.8388889 C186.897436,100.451111 190.8793,105.546667 197.675148,105.546667 C202.626741,105.546667 207.112288,102.545556 209.922951,97.5911111 C213.414416,91.5044444 213.255008,85.8355556 213.255008,78.9866667 L213.255008,75.1766667 C200.426033,75.1766667 186.897436,77.9155556 186.897436,92.8388889 L186.897436,92.8388889 Z M166.649374,53.5211111 C165.213601,53.1833333 163.594066,52.0277778 164.015831,49.8244444 C167.948988,29.2355556 186.777881,22.9933333 203.629679,22.9933333 C212.245428,22.9933333 223.530144,25.2788889 230.288354,31.71 C238.910745,39.7077778 238.107066,50.3222222 238.107066,61.8844444 L238.107066,89.2233333 C238.107066,97.44 241.538753,101.061111 244.784465,105.468889 C245.905852,107.072222 246.181494,108.968889 244.737971,110.12 C241.114774,113.123333 234.657667,118.685556 231.142955,121.762222 L231.03779,121.86 C229.871016,122.921111 228.247053,122.871111 226.934156,122.146667 C221.015049,117.311111 219.972259,115.07 216.775255,110.46 C207.029263,120.277778 200.152605,123.216667 187.556099,123.216667 C172.64265,123.216667 161.038012,114.114444 161.038012,95.8877778 C161.038012,81.6444444 168.845654,71.9844444 179.937753,67.2233333 C189.568617,63.0411111 202.977658,62.2755556 213.255008,61.1377778 L213.255008,58.8522222 C213.255008,54.6944444 213.558325,49.7511111 211.08751,46.1377778 C208.92444,42.9388889 204.793132,41.6055556 201.161078,41.6055556 C194.402868,41.6055556 188.36642,45.0333333 186.897436,52.11 C186.589691,53.7166667 185.421811,55.2688889 183.8377,55.3544444 L166.649374,53.5211111 L166.649374,53.5211111 Z" id="Fill-24" fill="#FFFFFE"></path>
                    <path d="M240.789317,136.293333 C230.650342,143.811111 215.947222,147.806667 203.292045,147.806667 C185.548008,147.806667 169.571844,141.215556 157.477914,130.261111 C156.532539,129.407778 157.378284,128.231111 158.520704,128.893333 C171.564436,136.508889 187.692259,141.094444 204.353654,141.094444 C215.595198,141.094444 227.949272,138.765556 239.320333,133.92 C241.028428,133.187778 242.46863,135.056667 240.789317,136.293333" id="Fill-25" fill="#EB902D"></path>
                    <path d="M245.01472,131.465556 C243.718428,129.792222 236.435502,130.673333 233.168757,131.065556 C232.179103,131.185556 232.023016,130.316667 232.915255,129.685556 C238.718128,125.594444 248.236078,126.775556 249.339753,128.148889 C250.446749,129.525556 249.04972,139.097778 243.606621,143.665556 C242.77084,144.366667 241.973802,143.993333 242.340218,143.071111 C243.567877,139.997778 246.309905,133.127778 245.01472,131.465556" id="Fill-26" fill="#EB902D"></path>
                </g>
            </g>
        </g>
    </g>
</svg>