<?xml version="1.0" encoding="UTF-8"?>
<svg width="50px" height="50px" viewBox="0 0 50 50" version="1.1" xmlns="http://www.w3.org/2000/svg" xmlns:xlink="http://www.w3.org/1999/xlink">
    <!-- Generator: Sketch 51.2 (57519) - http://www.bohemiancoding.com/sketch -->
    <title>Icons/Large (50px)/Amazon</title>
    <desc>Created with Sketch.</desc>
    <defs></defs>
    <g id="Icons/Large-(50px)/Amazon" stroke="none" stroke-width="1" fill="none" fill-rule="evenodd">
        <g id="Group" transform="translate(10.000000, 5.000000)">
            <path d="M10.9391804,22.3007727 C10.9391804,24.7312558 12.1616646,26.3582 14.2480785,26.3582 C15.768282,26.3582 17.1454035,25.3999845 18.0083135,23.8180951 C19.0802388,21.8747021 19.0312987,20.0646999 19.0312987,17.8779393 L19.0312987,16.6614561 C15.092636,16.6614561 10.9391804,17.5359475 10.9391804,22.3007727 L10.9391804,22.3007727 Z M4.72276135,9.74712032 C4.28196011,9.63927229 3.78474176,9.27031851 3.91422924,8.56682298 C5.12175954,1.99305994 10.9024752,0 16.0761971,0 C18.7213444,0 22.1858994,0.729748007 24.2607579,2.7831177 C26.9079444,5.33670358 26.6612045,8.72575692 26.6612045,12.4174233 L26.6612045,21.1463731 C26.6612045,23.7698473 27.7147772,24.9260208 28.7112531,26.3333666 C29.0555335,26.84529 29.1401591,27.4508708 28.6969789,27.8184056 C27.58461,28.7773306 25.6021939,30.5532755 24.5231315,31.5356149 L24.4908446,31.5668341 C24.1326299,31.905633 23.6340521,31.8896686 23.2309755,31.658363 C21.4137325,30.1144333 21.0935823,29.3988758 20.1120604,27.9269631 C17.1199138,31.0616512 15.00869,32 11.1413983,32 C6.56277516,32 3,29.0937794 3,23.2742431 C3,18.726533 5.3970479,15.6422213 8.80246687,14.1220607 C11.7592678,12.7867319 15.8760183,12.5423 19.0312987,12.1790224 L19.0312987,11.4492744 C19.0312987,10.1217503 19.1244209,8.54340861 18.3658485,7.38971852 C17.7017579,6.36835512 16.4333922,5.94263922 15.3183044,5.94263922 C13.2434459,5.94263922 11.3901775,7.03708385 10.9391804,9.29657099 C10.8446987,9.80955865 10.4861441,10.3051629 9.99980131,10.3324797 L4.72276135,9.74712032 L4.72276135,9.74712032 Z" id="Fill-24" fill="#FFFFFE"></path>
            <path d="M25.7699142,37.3846449 C22.6489917,39.7453371 18.1231599,41 14.2277143,41 C8.7658443,41 3.84815088,38.9302947 0.12546513,35.4904389 C-0.165534744,35.2224798 0.0947976961,34.8529893 0.44645094,35.0609367 C4.46149956,37.4523325 9.42587563,38.8922641 14.5544929,38.8922641 C18.0148017,38.8922641 21.8175635,38.1609589 25.31774,36.6393836 C25.8435161,36.4094551 26.2868309,36.9963135 25.7699142,37.3846449" id="Fill-25" fill="#EB902D"></path>
            <path d="M27.6532454,36.3399487 C27.2799682,35.8524854 25.1827942,36.1091643 24.2421102,36.2234236 C23.9571317,36.2583812 23.9121854,36.0052627 24.1691123,35.821412 C25.8400936,34.6296192 28.5808599,34.9736919 28.8986715,35.3737614 C29.2174394,35.774802 28.8151543,38.5633124 27.2477726,39.8939643 C27.0071028,40.0982069 26.77759,39.9894502 26.8831021,39.7207951 C27.2366157,38.8254939 28.0262038,36.8241753 27.6532454,36.3399487" id="Fill-26" fill="#EB902D"></path>
        </g>
    </g>
</svg>